<svg width="112" height="112" viewBox="0 0 112 112" fill="none" xmlns="http://www.w3.org/2000/svg">
<g id="Black" clip-path="url(#clip0_4_306)">
<g id="#3F4D69">
<circle id="white background" cx="56" cy="56" r="56" fill="white"/>
<path id="color" d="M112 56C112 86.9279 86.9279 112 56 112C25.0721 112 0 86.9279 0 56C0 25.0721 25.0721 0 56 0C86.9279 0 112 25.0721 112 56ZM25.228 56C25.228 72.9949 39.0051 86.772 56 86.772C72.9949 86.772 86.772 72.9949 86.772 56C86.772 39.0051 72.9949 25.228 56 25.228C39.0051 25.228 25.228 39.0051 25.228 56Z" fill="#3F4D69"/>
<circle id="white opacity" opacity="0.75" cx="56" cy="56" r="38" fill="white"/>
<circle id="dots" cx="55.5" cy="55.5" r="34.5" stroke="white" stroke-dasharray="3 3"/>
<g id="white corners">
<path id="path366" d="M8.16663 26.8692L18.1026 33.7172C21.896 27.2786 27.276 21.8959 33.716 18.0999L26.868 8.16652C19.248 12.8199 12.8186 19.2465 8.16663 26.8692Z" fill="url(#paint0_radial_4_306)"/>
<path id="path270" d="M0 55.9999C0 60.5585 0.559994 64.9838 1.58533 69.2265L13.428 67.0452C12.5187 63.5159 12.032 59.8172 12.032 55.9999C12.032 52.1879 12.5187 48.4865 13.428 44.9585L1.58533 42.7759C0.559994 47.0172 0 51.4425 0 55.9999Z" fill="url(#paint1_radial_4_306)"/>
<path id="path198" d="M8.16528 85.1279C12.8186 92.7545 19.248 99.1812 26.868 103.835L33.7146 93.9012C27.276 90.1079 21.896 84.7239 18.1013 78.2879L8.16528 85.1279Z" fill="url(#paint2_radial_4_306)"/>
<path id="path318" d="M55.9985 99.9705C52.1892 99.9705 48.4866 99.4812 44.9572 98.5678L42.7759 110.415C47.0172 111.443 51.4425 111.997 55.9985 111.997C60.5559 111.997 64.9825 111.443 69.2239 110.415L67.0439 98.5678C63.5159 99.4812 59.8092 99.9705 55.9985 99.9705Z" fill="url(#paint3_radial_4_306)"/>
<path id="path246" d="M78.2853 93.9012L85.1279 103.835C92.7559 99.1812 99.1799 92.7545 103.831 85.1279L93.8999 78.2852C90.1039 84.7238 84.7213 90.1079 78.2853 93.9012Z" fill="url(#paint4_radial_4_306)"/>
<path id="path222" d="M98.5679 44.9585C99.4772 48.4865 99.9666 52.1879 99.9666 55.9999C99.9666 59.8172 99.4772 63.5159 98.5679 67.0452L110.416 69.2265C111.441 64.9838 111.997 60.5585 111.997 55.9999C111.997 51.4425 111.441 47.0172 110.416 42.7759L98.5679 44.9585Z" fill="url(#paint5_radial_4_306)"/>
<path id="path342" d="M78.2839 18.0999C84.7213 21.8959 90.104 27.2786 93.8973 33.7172L103.831 26.8705C99.18 19.2465 92.7559 12.8212 85.1279 8.16652L78.2839 18.0999Z" fill="url(#paint6_radial_4_306)"/>
<path id="path294" d="M42.7759 1.58649L44.9572 13.4305C48.4866 12.5198 52.1892 12.0318 55.9985 12.0318C59.8092 12.0318 63.5159 12.5198 67.0439 13.4305L69.2239 1.58649C64.9825 0.558488 60.5559 0.00111961 55.9985 0.00111961C51.4425 0.00111961 47.0172 0.558488 42.7759 1.58649Z" fill="url(#paint7_radial_4_306)"/>
</g>
</g>
<path id="100" d="M44.7266 46.9023V64H41.3516V50.793L37.2969 52.082V49.4219L44.3633 46.9023H44.7266ZM61.7656 53.9688V56.9219C61.7656 58.2031 61.6289 59.3086 61.3555 60.2383C61.082 61.1602 60.6875 61.918 60.1719 62.5117C59.6641 63.0977 59.0586 63.5312 58.3555 63.8125C57.6523 64.0938 56.8711 64.2344 56.0117 64.2344C55.3242 64.2344 54.6836 64.1484 54.0898 63.9766C53.4961 63.7969 52.9609 63.5195 52.4844 63.1445C52.0156 62.7695 51.6094 62.2969 51.2656 61.7266C50.9297 61.1484 50.6719 60.4609 50.4922 59.6641C50.3125 58.8672 50.2227 57.9531 50.2227 56.9219V53.9688C50.2227 52.6875 50.3594 51.5898 50.6328 50.6758C50.9141 49.7539 51.3086 49 51.8164 48.4141C52.332 47.8281 52.9414 47.3984 53.6445 47.125C54.3477 46.8438 55.1289 46.7031 55.9883 46.7031C56.6758 46.7031 57.3125 46.793 57.8984 46.9727C58.4922 47.1445 59.0273 47.4141 59.5039 47.7812C59.9805 48.1484 60.3867 48.6211 60.7227 49.1992C61.0586 49.7695 61.3164 50.4531 61.4961 51.25C61.6758 52.0391 61.7656 52.9453 61.7656 53.9688ZM58.3789 57.3672V53.5117C58.3789 52.8945 58.3438 52.3555 58.2734 51.8945C58.2109 51.4336 58.1133 51.043 57.9805 50.7227C57.8477 50.3945 57.6836 50.1289 57.4883 49.9258C57.293 49.7227 57.0703 49.5742 56.8203 49.4805C56.5703 49.3867 56.293 49.3398 55.9883 49.3398C55.6055 49.3398 55.2656 49.4141 54.9688 49.5625C54.6797 49.7109 54.4336 49.9492 54.2305 50.2773C54.0273 50.5977 53.8711 51.0273 53.7617 51.5664C53.6602 52.0977 53.6094 52.7461 53.6094 53.5117V57.3672C53.6094 57.9844 53.6406 58.5273 53.7031 58.9961C53.7734 59.4648 53.875 59.8672 54.0078 60.2031C54.1484 60.5312 54.3125 60.8008 54.5 61.0117C54.6953 61.2148 54.918 61.3633 55.168 61.457C55.4258 61.5508 55.707 61.5977 56.0117 61.5977C56.3867 61.5977 56.7188 61.5234 57.0078 61.375C57.3047 61.2188 57.5547 60.9766 57.7578 60.6484C57.9688 60.3125 58.125 59.875 58.2266 59.3359C58.3281 58.7969 58.3789 58.1406 58.3789 57.3672ZM75.5469 53.9688V56.9219C75.5469 58.2031 75.4102 59.3086 75.1367 60.2383C74.8633 61.1602 74.4688 61.918 73.9531 62.5117C73.4453 63.0977 72.8398 63.5312 72.1367 63.8125C71.4336 64.0938 70.6523 64.2344 69.793 64.2344C69.1055 64.2344 68.4648 64.1484 67.8711 63.9766C67.2773 63.7969 66.7422 63.5195 66.2656 63.1445C65.7969 62.7695 65.3906 62.2969 65.0469 61.7266C64.7109 61.1484 64.4531 60.4609 64.2734 59.6641C64.0938 58.8672 64.0039 57.9531 64.0039 56.9219V53.9688C64.0039 52.6875 64.1406 51.5898 64.4141 50.6758C64.6953 49.7539 65.0898 49 65.5977 48.4141C66.1133 47.8281 66.7227 47.3984 67.4258 47.125C68.1289 46.8438 68.9102 46.7031 69.7695 46.7031C70.457 46.7031 71.0938 46.793 71.6797 46.9727C72.2734 47.1445 72.8086 47.4141 73.2852 47.7812C73.7617 48.1484 74.168 48.6211 74.5039 49.1992C74.8398 49.7695 75.0977 50.4531 75.2773 51.25C75.457 52.0391 75.5469 52.9453 75.5469 53.9688ZM72.1602 57.3672V53.5117C72.1602 52.8945 72.125 52.3555 72.0547 51.8945C71.9922 51.4336 71.8945 51.043 71.7617 50.7227C71.6289 50.3945 71.4648 50.1289 71.2695 49.9258C71.0742 49.7227 70.8516 49.5742 70.6016 49.4805C70.3516 49.3867 70.0742 49.3398 69.7695 49.3398C69.3867 49.3398 69.0469 49.4141 68.75 49.5625C68.4609 49.7109 68.2148 49.9492 68.0117 50.2773C67.8086 50.5977 67.6523 51.0273 67.543 51.5664C67.4414 52.0977 67.3906 52.7461 67.3906 53.5117V57.3672C67.3906 57.9844 67.4219 58.5273 67.4844 58.9961C67.5547 59.4648 67.6562 59.8672 67.7891 60.2031C67.9297 60.5312 68.0938 60.8008 68.2812 61.0117C68.4766 61.2148 68.6992 61.3633 68.9492 61.457C69.207 61.5508 69.4883 61.5977 69.793 61.5977C70.168 61.5977 70.5 61.5234 70.7891 61.375C71.0859 61.2188 71.3359 60.9766 71.5391 60.6484C71.75 60.3125 71.9062 59.875 72.0078 59.3359C72.1094 58.7969 72.1602 58.1406 72.1602 57.3672Z" fill="black"/>
</g>
<defs>
<radialGradient id="paint0_radial_4_306" cx="0" cy="0" r="1" gradientUnits="userSpaceOnUse" gradientTransform="translate(55.7834 56.0036) scale(87.0781 87.0781)">
<stop stop-color="white"/>
<stop offset="0.103027" stop-color="white"/>
<stop offset="0.762328" stop-color="white"/>
<stop offset="1" stop-color="#A5A3A4"/>
</radialGradient>
<radialGradient id="paint1_radial_4_306" cx="0" cy="0" r="1" gradientUnits="userSpaceOnUse" gradientTransform="translate(55.7757 56.0009) scale(87.0649 87.0645)">
<stop stop-color="white"/>
<stop offset="0.103027" stop-color="white"/>
<stop offset="0.762328" stop-color="white"/>
<stop offset="1" stop-color="#A5A3A4"/>
</radialGradient>
<radialGradient id="paint2_radial_4_306" cx="0" cy="0" r="1" gradientUnits="userSpaceOnUse" gradientTransform="translate(55.7821 56.0022) scale(87.069 87.0689)">
<stop stop-color="white"/>
<stop offset="0.103027" stop-color="white"/>
<stop offset="0.762328" stop-color="white"/>
<stop offset="1" stop-color="#A5A3A4"/>
</radialGradient>
<radialGradient id="paint3_radial_4_306" cx="0" cy="0" r="1" gradientUnits="userSpaceOnUse" gradientTransform="translate(55.7807 55.9975) scale(87.073 87.0732)">
<stop stop-color="white"/>
<stop offset="0.103027" stop-color="white"/>
<stop offset="0.762328" stop-color="white"/>
<stop offset="1" stop-color="#A5A3A4"/>
</radialGradient>
<radialGradient id="paint4_radial_4_306" cx="0" cy="0" r="1" gradientUnits="userSpaceOnUse" gradientTransform="translate(55.782 56.0002) scale(87.0674 87.0675)">
<stop stop-color="white"/>
<stop offset="0.103027" stop-color="white"/>
<stop offset="0.762328" stop-color="white"/>
<stop offset="1" stop-color="#A5A3A4"/>
</radialGradient>
<radialGradient id="paint5_radial_4_306" cx="0" cy="0" r="1" gradientUnits="userSpaceOnUse" gradientTransform="translate(55.7845 56.0009) scale(87.0647 87.0643)">
<stop stop-color="white"/>
<stop offset="0.103027" stop-color="white"/>
<stop offset="0.762328" stop-color="white"/>
<stop offset="1" stop-color="#A5A3A4"/>
</radialGradient>
<radialGradient id="paint6_radial_4_306" cx="0" cy="0" r="1" gradientUnits="userSpaceOnUse" gradientTransform="translate(55.782 56.0042) scale(87.0665 87.0665)">
<stop stop-color="white"/>
<stop offset="0.103027" stop-color="white"/>
<stop offset="0.762328" stop-color="white"/>
<stop offset="1" stop-color="#A5A3A4"/>
</radialGradient>
<radialGradient id="paint7_radial_4_306" cx="0" cy="0" r="1" gradientUnits="userSpaceOnUse" gradientTransform="translate(55.7807 55.9977) scale(87.0687 87.0689)">
<stop stop-color="white"/>
<stop offset="0.103027" stop-color="white"/>
<stop offset="0.762328" stop-color="white"/>
<stop offset="1" stop-color="#A5A3A4"/>
</radialGradient>
<clipPath id="clip0_4_306">
<rect width="112" height="112" fill="white"/>
</clipPath>
</defs>
</svg>
