<svg width="112" height="112" viewBox="0 0 112 112" fill="none" xmlns="http://www.w3.org/2000/svg">
<g id="Blue" clip-path="url(#clip0_4_305)">
<g id="#3C529E">
<circle id="white background" cx="56" cy="56" r="56" fill="white"/>
<path id="color" d="M112 56C112 86.9279 86.9279 112 56 112C25.0721 112 0 86.9279 0 56C0 25.0721 25.0721 0 56 0C86.9279 0 112 25.0721 112 56ZM25.228 56C25.228 72.9949 39.0051 86.772 56 86.772C72.9949 86.772 86.772 72.9949 86.772 56C86.772 39.0051 72.9949 25.228 56 25.228C39.0051 25.228 25.228 39.0051 25.228 56Z" fill="#3C529E"/>
<circle id="white opacity" opacity="0.75" cx="56" cy="56" r="38" fill="white"/>
<circle id="dots" cx="55.5" cy="55.5" r="34.5" stroke="white" stroke-dasharray="3 3"/>
<g id="white corners">
<path id="path366" d="M8.16663 26.8692L18.1026 33.7172C21.896 27.2786 27.276 21.8959 33.716 18.0999L26.868 8.16652C19.248 12.8199 12.8186 19.2465 8.16663 26.8692Z" fill="url(#paint0_radial_4_305)"/>
<path id="path270" d="M0 55.9999C0 60.5585 0.559994 64.9838 1.58533 69.2265L13.428 67.0452C12.5187 63.5159 12.032 59.8172 12.032 55.9999C12.032 52.1879 12.5187 48.4865 13.428 44.9585L1.58533 42.7759C0.559994 47.0172 0 51.4425 0 55.9999Z" fill="url(#paint1_radial_4_305)"/>
<path id="path198" d="M8.16528 85.1279C12.8186 92.7545 19.248 99.1812 26.868 103.835L33.7146 93.9012C27.276 90.1079 21.896 84.7239 18.1013 78.2879L8.16528 85.1279Z" fill="url(#paint2_radial_4_305)"/>
<path id="path318" d="M55.9985 99.9705C52.1892 99.9705 48.4866 99.4812 44.9572 98.5678L42.7759 110.415C47.0172 111.443 51.4425 111.997 55.9985 111.997C60.5559 111.997 64.9825 111.443 69.2239 110.415L67.0439 98.5678C63.5159 99.4812 59.8092 99.9705 55.9985 99.9705Z" fill="url(#paint3_radial_4_305)"/>
<path id="path246" d="M78.2853 93.9012L85.1279 103.835C92.7559 99.1812 99.1799 92.7545 103.831 85.1279L93.8999 78.2852C90.1039 84.7238 84.7213 90.1079 78.2853 93.9012Z" fill="url(#paint4_radial_4_305)"/>
<path id="path222" d="M98.5679 44.9585C99.4772 48.4865 99.9666 52.1879 99.9666 55.9999C99.9666 59.8172 99.4772 63.5159 98.5679 67.0452L110.416 69.2265C111.441 64.9838 111.997 60.5585 111.997 55.9999C111.997 51.4425 111.441 47.0172 110.416 42.7759L98.5679 44.9585Z" fill="url(#paint5_radial_4_305)"/>
<path id="path342" d="M78.2839 18.0999C84.7213 21.8959 90.104 27.2786 93.8973 33.7172L103.831 26.8705C99.18 19.2465 92.7559 12.8212 85.1279 8.16652L78.2839 18.0999Z" fill="url(#paint6_radial_4_305)"/>
<path id="path294" d="M42.7759 1.58649L44.9572 13.4305C48.4866 12.5198 52.1892 12.0318 55.9985 12.0318C59.8092 12.0318 63.5159 12.5198 67.0439 13.4305L69.2239 1.58649C64.9825 0.558488 60.5559 0.00111961 55.9985 0.00111961C51.4425 0.00111961 47.0172 0.558488 42.7759 1.58649Z" fill="url(#paint7_radial_4_305)"/>
</g>
</g>
<path id="10" d="M51.6172 46.9023V64H48.2422V50.793L44.1875 52.082V49.4219L51.2539 46.9023H51.6172ZM68.6562 53.9688V56.9219C68.6562 58.2031 68.5195 59.3086 68.2461 60.2383C67.9727 61.1602 67.5781 61.918 67.0625 62.5117C66.5547 63.0977 65.9492 63.5312 65.2461 63.8125C64.543 64.0938 63.7617 64.2344 62.9023 64.2344C62.2148 64.2344 61.5742 64.1484 60.9805 63.9766C60.3867 63.7969 59.8516 63.5195 59.375 63.1445C58.9062 62.7695 58.5 62.2969 58.1562 61.7266C57.8203 61.1484 57.5625 60.4609 57.3828 59.6641C57.2031 58.8672 57.1133 57.9531 57.1133 56.9219V53.9688C57.1133 52.6875 57.25 51.5898 57.5234 50.6758C57.8047 49.7539 58.1992 49 58.707 48.4141C59.2227 47.8281 59.832 47.3984 60.5352 47.125C61.2383 46.8438 62.0195 46.7031 62.8789 46.7031C63.5664 46.7031 64.2031 46.793 64.7891 46.9727C65.3828 47.1445 65.918 47.4141 66.3945 47.7812C66.8711 48.1484 67.2773 48.6211 67.6133 49.1992C67.9492 49.7695 68.207 50.4531 68.3867 51.25C68.5664 52.0391 68.6562 52.9453 68.6562 53.9688ZM65.2695 57.3672V53.5117C65.2695 52.8945 65.2344 52.3555 65.1641 51.8945C65.1016 51.4336 65.0039 51.043 64.8711 50.7227C64.7383 50.3945 64.5742 50.1289 64.3789 49.9258C64.1836 49.7227 63.9609 49.5742 63.7109 49.4805C63.4609 49.3867 63.1836 49.3398 62.8789 49.3398C62.4961 49.3398 62.1562 49.4141 61.8594 49.5625C61.5703 49.7109 61.3242 49.9492 61.1211 50.2773C60.918 50.5977 60.7617 51.0273 60.6523 51.5664C60.5508 52.0977 60.5 52.7461 60.5 53.5117V57.3672C60.5 57.9844 60.5312 58.5273 60.5938 58.9961C60.6641 59.4648 60.7656 59.8672 60.8984 60.2031C61.0391 60.5312 61.2031 60.8008 61.3906 61.0117C61.5859 61.2148 61.8086 61.3633 62.0586 61.457C62.3164 61.5508 62.5977 61.5977 62.9023 61.5977C63.2773 61.5977 63.6094 61.5234 63.8984 61.375C64.1953 61.2188 64.4453 60.9766 64.6484 60.6484C64.8594 60.3125 65.0156 59.875 65.1172 59.3359C65.2188 58.7969 65.2695 58.1406 65.2695 57.3672Z" fill="black"/>
</g>
<defs>
<radialGradient id="paint0_radial_4_305" cx="0" cy="0" r="1" gradientUnits="userSpaceOnUse" gradientTransform="translate(55.7834 56.0036) scale(87.0781 87.0781)">
<stop stop-color="white"/>
<stop offset="0.103027" stop-color="white"/>
<stop offset="0.762328" stop-color="white"/>
<stop offset="1" stop-color="#A5A3A4"/>
</radialGradient>
<radialGradient id="paint1_radial_4_305" cx="0" cy="0" r="1" gradientUnits="userSpaceOnUse" gradientTransform="translate(55.7757 56.0009) scale(87.0649 87.0645)">
<stop stop-color="white"/>
<stop offset="0.103027" stop-color="white"/>
<stop offset="0.762328" stop-color="white"/>
<stop offset="1" stop-color="#A5A3A4"/>
</radialGradient>
<radialGradient id="paint2_radial_4_305" cx="0" cy="0" r="1" gradientUnits="userSpaceOnUse" gradientTransform="translate(55.7821 56.0022) scale(87.069 87.0689)">
<stop stop-color="white"/>
<stop offset="0.103027" stop-color="white"/>
<stop offset="0.762328" stop-color="white"/>
<stop offset="1" stop-color="#A5A3A4"/>
</radialGradient>
<radialGradient id="paint3_radial_4_305" cx="0" cy="0" r="1" gradientUnits="userSpaceOnUse" gradientTransform="translate(55.7807 55.9975) scale(87.073 87.0732)">
<stop stop-color="white"/>
<stop offset="0.103027" stop-color="white"/>
<stop offset="0.762328" stop-color="white"/>
<stop offset="1" stop-color="#A5A3A4"/>
</radialGradient>
<radialGradient id="paint4_radial_4_305" cx="0" cy="0" r="1" gradientUnits="userSpaceOnUse" gradientTransform="translate(55.782 56.0002) scale(87.0674 87.0675)">
<stop stop-color="white"/>
<stop offset="0.103027" stop-color="white"/>
<stop offset="0.762328" stop-color="white"/>
<stop offset="1" stop-color="#A5A3A4"/>
</radialGradient>
<radialGradient id="paint5_radial_4_305" cx="0" cy="0" r="1" gradientUnits="userSpaceOnUse" gradientTransform="translate(55.7845 56.0009) scale(87.0647 87.0643)">
<stop stop-color="white"/>
<stop offset="0.103027" stop-color="white"/>
<stop offset="0.762328" stop-color="white"/>
<stop offset="1" stop-color="#A5A3A4"/>
</radialGradient>
<radialGradient id="paint6_radial_4_305" cx="0" cy="0" r="1" gradientUnits="userSpaceOnUse" gradientTransform="translate(55.782 56.0042) scale(87.0665 87.0665)">
<stop stop-color="white"/>
<stop offset="0.103027" stop-color="white"/>
<stop offset="0.762328" stop-color="white"/>
<stop offset="1" stop-color="#A5A3A4"/>
</radialGradient>
<radialGradient id="paint7_radial_4_305" cx="0" cy="0" r="1" gradientUnits="userSpaceOnUse" gradientTransform="translate(55.7807 55.9977) scale(87.0687 87.0689)">
<stop stop-color="white"/>
<stop offset="0.103027" stop-color="white"/>
<stop offset="0.762328" stop-color="white"/>
<stop offset="1" stop-color="#A5A3A4"/>
</radialGradient>
<clipPath id="clip0_4_305">
<rect width="112" height="112" fill="white"/>
</clipPath>
</defs>
</svg>
