<svg width="203" height="283" viewBox="0 0 203 283" fill="none" xmlns="http://www.w3.org/2000/svg">
<path d="M202.111 10.439C202.111 4.873 197.598 0.360001 192.033 0.360001H10.6081C5.04206 0.360001 0.529053 4.873 0.529053 10.439V272.497C0.529053 278.063 5.04206 282.576 10.6081 282.576C10.6151 282.576 10.6231 282.576 10.6301 282.576H192.01C192.018 282.576 192.025 282.576 192.031 282.576C197.597 282.576 202.11 278.063 202.11 272.497V10.439H202.111Z" fill="#030202"/>
<path d="M77.4451 273.057H25.6431L26.7091 272.083C26.7251 272.068 27.4671 271.38 28.3281 270.176H20.3861V273.057H10.0471V262.719H12.9281V254.777C11.7241 255.637 11.0351 256.38 11.0211 256.395L10.0471 257.461V205.659L11.1661 205.621C13.3331 237.547 24.6891 252.124 27.6711 255.433C30.9791 258.413 45.5551 269.771 77.4831 271.938L77.4451 273.057ZM28.3851 271.937H66.8301C44.4121 268.666 32.5051 260.819 28.1091 257.27L27.7751 257.104C28.5231 260.63 27.7361 264.935 26.1901 266.45C25.4791 267.145 24.6271 267.289 23.7921 266.846C22.8541 266.353 22.2801 265.664 22.0861 264.798C21.7111 263.135 22.9381 261.475 22.9901 261.405L23.8861 262.075C23.8761 262.089 22.9151 263.399 23.1781 264.555C23.3001 265.092 23.6711 265.516 24.3131 265.854C24.5811 265.995 24.9471 266.099 25.4061 265.648C26.8051 264.278 27.4251 259.81 26.4961 256.609C23.2911 255.677 18.8251 256.298 17.4561 257.698C17.0051 258.158 17.1091 258.524 17.2491 258.792C17.5871 259.433 18.0131 259.804 18.5491 259.927C19.7041 260.19 21.0151 259.229 21.0281 259.219L21.6991 260.115C21.6301 260.167 19.9701 261.402 18.3061 261.018C17.4401 260.824 16.7511 260.249 16.2581 259.312C15.8181 258.477 15.9591 257.624 16.6541 256.914C18.1681 255.368 22.4711 254.58 26.0001 255.328L25.8331 254.995C22.2851 250.599 14.4391 238.693 11.1671 216.275V254.719C11.6141 254.337 12.2061 253.874 12.9281 253.407V238.846L14.0381 238.743C15.0431 244.213 19.7261 251.255 19.7721 251.325L20.2861 252.093L19.3681 252.194C17.2611 252.425 15.4431 253.213 14.0481 254.043V262.718H18.7361L12.9281 269.52V263.837H11.1671V271.936H19.2661V270.175H13.5831L20.3861 264.368V269.055H29.0601C29.8911 267.659 30.6771 265.842 30.9091 263.735L31.0111 262.818L31.7781 263.331C31.8481 263.379 38.8931 268.061 44.3591 269.064L44.2571 270.175H29.6961C29.2291 270.896 28.7671 271.489 28.3851 271.937ZM30.3601 269.056H40.3391C36.7711 267.702 33.3601 265.662 31.8951 264.74C31.5991 266.396 31.0121 267.85 30.3601 269.056ZM16.6211 269.056H19.2671V266.797L16.6211 269.056ZM14.0491 263.838V266.485L16.3081 263.838H14.0491ZM14.0491 242.764V252.744C15.2551 252.093 16.7091 251.506 18.3651 251.21C17.4421 249.744 15.4031 246.333 14.0491 242.764Z" fill="white"/>
<path d="M192.594 273.057H182.255V270.176H174.31C175.171 271.381 175.915 272.069 175.931 272.082L177.003 273.057H125.195L125.158 271.938C157.085 269.771 171.662 258.414 174.97 255.433C177.951 252.124 189.307 237.547 191.475 205.621L192.594 205.659V257.461L191.619 256.395C191.604 256.379 190.917 255.637 189.713 254.777V262.719H192.594V273.057ZM183.374 271.937H191.474V263.838H189.713V269.521L183.905 262.719H188.593V254.044C187.197 253.214 185.379 252.427 183.272 252.195L182.355 252.094L182.868 251.326C182.916 251.256 187.599 244.211 188.603 238.744L189.713 238.847V253.408C190.434 253.875 191.026 254.338 191.474 254.72V216.276C188.202 238.694 180.356 250.6 176.807 254.996L176.641 255.329C180.167 254.583 184.472 255.369 185.986 256.915C186.682 257.626 186.824 258.478 186.383 259.313C185.89 260.251 185.2 260.825 184.334 261.019C182.672 261.402 181.012 260.167 180.942 260.116L181.613 259.22C181.626 259.23 182.935 260.191 184.092 259.928C184.629 259.805 185.055 259.434 185.392 258.793C185.533 258.525 185.636 258.159 185.186 257.699C183.817 256.3 179.35 255.679 176.146 256.61C175.217 259.811 175.836 264.279 177.235 265.649C177.695 266.1 178.061 265.996 178.329 265.855C178.971 265.517 179.341 265.093 179.464 264.556C179.727 263.4 178.766 262.089 178.755 262.076L179.652 261.406C179.705 261.475 180.931 263.135 180.556 264.799C180.362 265.665 179.787 266.354 178.85 266.847C178.013 267.289 177.162 267.146 176.452 266.451C174.906 264.936 174.119 260.632 174.866 257.105L174.533 257.271C170.137 260.82 158.23 268.667 135.812 271.938H174.257C173.874 271.491 173.412 270.898 172.945 270.177H158.383L158.282 269.066C163.751 268.062 170.792 263.38 170.862 263.334L171.63 262.82L171.732 263.737C171.963 265.848 172.748 267.664 173.577 269.057H182.255V264.37L189.058 270.177H183.374V271.937ZM183.374 269.056H186.02L183.374 266.797V269.056ZM162.301 269.056H172.28C171.629 267.85 171.043 266.396 170.746 264.74C169.281 265.662 165.87 267.701 162.301 269.056ZM186.334 263.838L188.593 266.485V263.838H186.334ZM184.276 251.21C185.931 251.506 187.386 252.093 188.592 252.744V242.764C187.238 246.333 185.198 249.744 184.276 251.21Z" fill="white"/>
<path d="M191.474 77.315C189.306 45.387 177.95 30.811 174.969 27.503C171.66 24.522 157.083 13.165 125.157 10.998L125.195 9.879H176.998L175.931 10.853C175.915 10.868 175.173 11.556 174.312 12.76H182.254V9.879H192.593V20.218H189.712V28.16C190.916 27.299 191.605 26.557 191.619 26.541L192.593 25.475V77.278L191.474 77.315ZM176.807 27.941C180.355 32.337 188.201 44.245 191.473 66.663V28.217C191.026 28.599 190.433 29.062 189.712 29.529V44.091L188.601 44.192C187.597 38.722 182.914 31.682 182.868 31.611L182.354 30.844L183.272 30.742C185.378 30.511 187.196 29.724 188.592 28.894V20.219H183.904L189.712 13.416V19.099H191.473V11H183.374V12.761H189.057L182.254 18.569V13.881H173.58C172.749 15.277 171.963 17.094 171.731 19.202L171.63 20.119L170.862 19.605C170.792 19.558 163.747 14.875 158.281 13.871L158.383 12.761H172.944C173.411 12.039 173.874 11.448 174.256 11H135.812C158.229 14.272 170.136 22.118 174.532 25.666L174.866 25.833C174.118 22.307 174.905 18.001 176.451 16.487C177.162 15.791 178.014 15.65 178.849 16.091C179.787 16.584 180.361 17.274 180.555 18.14C180.93 19.802 179.703 21.462 179.651 21.532L178.755 20.861C178.765 20.847 179.726 19.538 179.463 18.382C179.341 17.845 178.97 17.419 178.328 17.082C178.063 16.942 177.696 16.836 177.235 17.288C175.836 18.657 175.216 23.126 176.146 26.327C179.347 27.258 183.816 26.638 185.185 25.238C185.636 24.778 185.532 24.413 185.392 24.145C185.053 23.502 184.626 23.13 184.088 23.01C182.942 22.752 181.626 23.707 181.612 23.717L180.941 22.821C181.01 22.769 182.674 21.542 184.333 21.917C185.199 22.111 185.889 22.686 186.382 23.623C186.822 24.459 186.681 25.311 185.986 26.021C184.471 27.566 180.167 28.352 176.64 27.607L176.807 27.941ZM184.275 31.728C185.198 33.193 187.236 36.604 188.591 40.173V30.194C187.386 30.844 185.931 31.431 184.275 31.728ZM186.333 19.099H188.592V16.453L186.333 19.099ZM162.3 13.881C165.869 15.235 169.28 17.275 170.745 18.197C171.043 16.541 171.629 15.087 172.28 13.881H162.3ZM183.374 13.881V16.14L186.02 13.881H183.374Z" fill="white"/>
<path d="M11.1671 77.315L10.0481 77.278V25.475L11.0231 26.541C11.0381 26.558 11.7251 27.299 12.9301 28.16V20.218H10.0481V9.88H20.3871V12.761H28.3331C27.4711 11.556 26.7281 10.869 26.7111 10.855L25.6391 9.88H77.4471L77.4851 10.999C45.5591 13.166 30.9821 24.522 27.6721 27.504C24.6921 30.812 13.3351 45.388 11.1671 77.315ZM11.1681 28.217V66.663C14.4411 44.245 22.2861 32.338 25.8351 27.941L26.0011 27.608C22.4781 28.355 18.1701 27.568 16.6561 26.022C15.9601 25.311 15.8191 24.459 16.2591 23.624C16.7521 22.686 17.4431 22.112 18.3091 21.918C19.9701 21.543 21.6311 22.771 21.7011 22.822L21.0301 23.718C21.0161 23.708 19.7111 22.744 18.5511 23.01C18.0141 23.133 17.5891 23.503 17.2511 24.145C17.1101 24.413 17.0071 24.778 17.4571 25.238C18.8271 26.636 23.2941 27.256 26.4971 26.328C27.4271 23.126 26.8081 18.657 25.4081 17.288C24.9481 16.836 24.5811 16.942 24.3141 17.082C23.6731 17.419 23.3021 17.845 23.1801 18.382C22.9171 19.537 23.8781 20.847 23.8881 20.861L22.9911 21.532C22.9391 21.463 21.7131 19.803 22.0871 18.14C22.2821 17.274 22.8571 16.584 23.7931 16.091C24.6291 15.651 25.4811 15.791 26.1911 16.487C27.7371 18.001 28.5241 22.306 27.7771 25.833L28.1111 25.666C32.5071 22.118 44.4131 14.272 66.8311 11H28.3861C28.7691 11.447 29.2311 12.039 29.6991 12.761H44.2601L44.3621 13.871C38.8921 14.876 31.8511 19.559 31.7811 19.605L31.0131 20.119L30.9121 19.202C30.6801 17.091 29.8951 15.275 29.0661 13.881H20.3881V18.569L13.5851 12.761H19.2691V11H11.1691V19.099H12.9311V13.416L18.7391 20.219H14.0511V28.894C15.4471 29.724 17.2641 30.51 19.3711 30.742L20.2891 30.844L19.7751 31.611C19.7281 31.681 15.0451 38.726 14.0411 44.192L12.9311 44.091V29.529C12.2081 29.062 11.6151 28.599 11.1681 28.217ZM14.0501 30.193V40.172C15.4041 36.603 17.4441 33.192 18.3651 31.727C16.7101 31.431 15.2561 30.844 14.0501 30.193ZM14.0501 19.099H16.3091L14.0501 16.453V19.099ZM30.3611 13.881C31.0121 15.087 31.5981 16.541 31.8951 18.197C33.3601 17.274 36.7721 15.235 40.3411 13.881H30.3611ZM16.6211 13.881L19.2671 16.14V13.881H16.6211Z" fill="white"/>
<path d="M192.593 77.278H191.473V205.659H192.593V77.278Z" fill="white"/>
<path d="M11.1681 77.278H10.0481V205.659H11.1681V77.278Z" fill="white"/>
<path d="M101.319 170.544L75.2091 137.996L101.319 105.448L127.43 137.996L101.319 170.544ZM76.6451 137.996L101.32 168.755L125.995 137.996L101.32 107.237L76.6451 137.996Z" fill="white"/>
<path d="M101.32 216.296L92.702 204.41L93.608 203.752L101.319 214.389L109.031 203.752L109.938 204.41L101.32 216.296Z" fill="white"/>
<path d="M101.32 226.564L92.217 214.01L93.123 213.351L101.319 224.657L109.517 213.351L110.423 214.01L101.32 226.564Z" fill="white"/>
<path d="M144.22 156.912L143.313 156.254L156.593 137.935C155.549 136.621 152.577 132.52 143.312 119.739L144.219 119.082C144.219 119.082 157.576 137.509 157.692 137.665L157.932 137.994L157.694 138.326L144.22 156.912Z" fill="white"/>
<path d="M161.116 138.366L160.21 137.708L116.259 198.216L117.165 198.874L161.116 138.366Z" fill="white"/>
<path d="M141.898 164.824L137.827 159.21L153.253 137.932C152.139 136.526 148.826 131.957 138.065 117.112L137.827 116.783L141.208 112.121C140.27 110.829 139.288 109.474 138.257 108.052L116.31 77.777L117.216 77.12C117.654 77.724 160.941 137.436 161.11 137.667L161.35 137.996L141.898 164.824ZM139.211 159.21L141.899 162.917L159.964 137.997L141.898 113.075L139.21 116.782C141.146 119.453 154.237 137.512 154.349 137.665L154.59 137.994L154.352 138.325L139.211 159.21Z" fill="white"/>
<path d="M134.313 181.054L133.407 180.395L164.191 137.932C163.073 136.52 159.742 131.925 148.893 116.961L133.406 95.597L134.313 94.94C134.622 95.366 165.137 137.461 165.287 137.666L165.527 137.995L165.289 138.326L134.313 181.054Z" fill="white"/>
<path d="M93.6091 72.24L92.7031 71.583L101.32 59.695L109.937 71.583L109.03 72.24L101.32 61.604L93.6091 72.24Z" fill="white"/>
<path d="M109.516 62.641L101.32 51.335L93.124 62.641L92.218 61.983L101.32 49.427L110.423 61.983L109.516 62.641Z" fill="white"/>
<path d="M58.42 156.911L44.707 137.994L44.949 137.664C45.064 137.508 58.421 119.081 58.421 119.081L59.328 119.738C50.062 132.519 47.091 136.62 46.048 137.934L59.326 156.254L58.42 156.911Z" fill="white"/>
<path d="M86.3288 198.19L42.4375 137.644L41.5316 138.3L85.4229 198.846L86.3288 198.19Z" fill="white"/>
<path d="M60.741 164.824L41.291 137.996L41.531 137.667C41.546 137.646 42.035 136.971 42.9 135.777L59.189 113.307C71.387 96.481 85.424 77.118 85.424 77.118L86.331 77.775L64.383 108.05C63.353 109.472 62.37 110.827 61.433 112.12L64.813 116.781L64.575 117.11C53.812 131.956 50.501 136.524 49.387 137.93L64.813 159.208L60.741 164.824ZM42.675 137.997L60.741 162.917L63.429 159.21L48.049 137.994L48.29 137.665C48.401 137.513 61.493 119.453 63.429 116.782L60.741 113.075L42.675 137.997Z" fill="white"/>
<path d="M68.326 181.054L37.1121 137.996L37.3521 137.666C37.4731 137.5 68.3271 94.939 68.3271 94.939L69.2331 95.596L53.7461 116.96C42.8971 131.924 39.5671 136.519 38.4491 137.93L69.2321 180.394L68.326 181.054Z" fill="white"/>
</svg>
