<svg width="112" height="112" viewBox="0 0 112 112" fill="none" xmlns="http://www.w3.org/2000/svg">
<g id="icon" clip-path="url(#clip0_213_2)">
<g id="#515262">
<circle id="white background" cx="56" cy="56" r="56" fill="white"/>
<path id="color" d="M112 56C112 86.9279 86.9279 112 56 112C25.0721 112 0 86.9279 0 56C0 25.0721 25.0721 0 56 0C86.9279 0 112 25.0721 112 56ZM25.228 56C25.228 72.9949 39.0051 86.772 56 86.772C72.9949 86.772 86.772 72.9949 86.772 56C86.772 39.0051 72.9949 25.228 56 25.228C39.0051 25.228 25.228 39.0051 25.228 56Z" fill="#515262"/>
<circle id="white opacity" opacity="0.75" cx="56" cy="56" r="38" fill="white"/>
<circle id="dots" cx="55.5" cy="55.5" r="34.5" stroke="white" stroke-dasharray="3 3"/>
<g id="white corners">
<path id="path366" d="M8.16663 26.8692L18.1026 33.7172C21.896 27.2786 27.276 21.8959 33.716 18.0999L26.868 8.16653C19.248 12.8199 12.8186 19.2465 8.16663 26.8692" fill="url(#paint0_radial_213_2)"/>
<path id="path270" d="M0 55.9999C0 60.5585 0.559994 64.9838 1.58533 69.2265L13.428 67.0452C12.5187 63.5159 12.032 59.8172 12.032 55.9999C12.032 52.1879 12.5187 48.4865 13.428 44.9585L1.58533 42.7759C0.559994 47.0172 0 51.4425 0 55.9999" fill="url(#paint1_radial_213_2)"/>
<path id="path198" d="M8.16528 85.1279C12.8186 92.7545 19.248 99.1812 26.868 103.835L33.7146 93.9012C27.276 90.1079 21.896 84.7239 18.1013 78.2879L8.16528 85.1279Z" fill="url(#paint2_radial_213_2)"/>
<path id="path318" d="M55.9985 99.9705C52.1892 99.9705 48.4866 99.4812 44.9572 98.5678L42.7759 110.415C47.0172 111.443 51.4425 111.997 55.9985 111.997C60.5559 111.997 64.9825 111.443 69.2239 110.415L67.0439 98.5678C63.5159 99.4812 59.8092 99.9705 55.9985 99.9705Z" fill="url(#paint3_radial_213_2)"/>
<path id="path246" d="M78.2853 93.9012L85.1279 103.835C92.7559 99.1812 99.1799 92.7545 103.831 85.1279L93.8999 78.2852C90.1039 84.7238 84.7213 90.1079 78.2853 93.9012" fill="url(#paint4_radial_213_2)"/>
<path id="path222" d="M98.5679 44.9585C99.4772 48.4865 99.9666 52.1879 99.9666 55.9999C99.9666 59.8172 99.4772 63.5159 98.5679 67.0452L110.416 69.2265C111.441 64.9838 111.997 60.5585 111.997 55.9999C111.997 51.4425 111.441 47.0172 110.416 42.7759L98.5679 44.9585Z" fill="url(#paint5_radial_213_2)"/>
<path id="path342" d="M78.2839 18.0999C84.7213 21.8959 90.104 27.2786 93.8973 33.7172L103.831 26.8705C99.18 19.2465 92.7559 12.8212 85.1279 8.16653L78.2839 18.0999Z" fill="url(#paint6_radial_213_2)"/>
<path id="path294" d="M42.7759 1.58649L44.9572 13.4305C48.4866 12.5198 52.1892 12.0318 55.9985 12.0318C59.8092 12.0318 63.5159 12.5198 67.0439 13.4305L69.2239 1.58649C64.9825 0.558488 60.5559 0.00111978 55.9985 0.00111978C51.4425 0.00111978 47.0172 0.558488 42.7759 1.58649" fill="url(#paint7_radial_213_2)"/>
</g>
</g>
<g id="Vector" filter="url(#filter0_d_213_2)">
<path d="M56.8184 33.2309C56.3125 32.923 55.6872 32.923 55.1814 33.2309C51.3072 35.5886 35 46.2385 35 58.4652C35 64.8198 40.156 69.9712 46.5162 69.9712C48.598 69.9712 50.549 69.4179 52.2328 68.4516C52.7155 68.1745 53.2801 68.6643 53.0906 69.1906C52.1922 71.6868 50.9202 74.0026 49.3407 76.0677C48.7375 76.8564 49.3168 78 50.305 78H61.817C62.8055 78 63.3835 76.8559 62.7799 76.0668C61.2183 74.025 59.9576 71.7386 59.0612 69.2748C58.8709 68.7515 59.4274 68.2608 59.9118 68.5299C61.5622 69.447 63.4607 69.9712 65.4838 69.9712C71.8441 69.9712 77 64.8198 77 58.4652C77 46.2385 60.6928 35.5886 56.8184 33.2309Z" fill="#515262"/>
</g>
</g>
<defs>
<filter id="filter0_d_213_2" x="30" y="28" width="52" height="55" filterUnits="userSpaceOnUse" color-interpolation-filters="sRGB">
<feFlood flood-opacity="0" result="BackgroundImageFix"/>
<feColorMatrix in="SourceAlpha" type="matrix" values="0 0 0 0 0 0 0 0 0 0 0 0 0 0 0 0 0 0 127 0" result="hardAlpha"/>
<feOffset/>
<feGaussianBlur stdDeviation="2.5"/>
<feComposite in2="hardAlpha" operator="out"/>
<feColorMatrix type="matrix" values="0 0 0 0 0 0 0 0 0 0 0 0 0 0 0 0 0 0 0.25 0"/>
<feBlend mode="normal" in2="BackgroundImageFix" result="effect1_dropShadow_213_2"/>
<feBlend mode="normal" in="SourceGraphic" in2="effect1_dropShadow_213_2" result="shape"/>
</filter>
<radialGradient id="paint0_radial_213_2" cx="0" cy="0" r="1" gradientUnits="userSpaceOnUse" gradientTransform="translate(55.7834 56.0036) scale(87.0781 87.0781)">
<stop stop-color="white"/>
<stop offset="0.103027" stop-color="white"/>
<stop offset="0.762328" stop-color="white"/>
<stop offset="1" stop-color="#A5A3A4"/>
</radialGradient>
<radialGradient id="paint1_radial_213_2" cx="0" cy="0" r="1" gradientUnits="userSpaceOnUse" gradientTransform="translate(55.7757 56.0009) scale(87.0649 87.0645)">
<stop stop-color="white"/>
<stop offset="0.103027" stop-color="white"/>
<stop offset="0.762328" stop-color="white"/>
<stop offset="1" stop-color="#A5A3A4"/>
</radialGradient>
<radialGradient id="paint2_radial_213_2" cx="0" cy="0" r="1" gradientUnits="userSpaceOnUse" gradientTransform="translate(55.7821 56.0022) scale(87.069 87.0689)">
<stop stop-color="white"/>
<stop offset="0.103027" stop-color="white"/>
<stop offset="0.762328" stop-color="white"/>
<stop offset="1" stop-color="#A5A3A4"/>
</radialGradient>
<radialGradient id="paint3_radial_213_2" cx="0" cy="0" r="1" gradientUnits="userSpaceOnUse" gradientTransform="translate(55.7807 55.9975) scale(87.073 87.0732)">
<stop stop-color="white"/>
<stop offset="0.103027" stop-color="white"/>
<stop offset="0.762328" stop-color="white"/>
<stop offset="1" stop-color="#A5A3A4"/>
</radialGradient>
<radialGradient id="paint4_radial_213_2" cx="0" cy="0" r="1" gradientUnits="userSpaceOnUse" gradientTransform="translate(55.782 56.0002) scale(87.0674 87.0675)">
<stop stop-color="white"/>
<stop offset="0.103027" stop-color="white"/>
<stop offset="0.762328" stop-color="white"/>
<stop offset="1" stop-color="#A5A3A4"/>
</radialGradient>
<radialGradient id="paint5_radial_213_2" cx="0" cy="0" r="1" gradientUnits="userSpaceOnUse" gradientTransform="translate(55.7845 56.0009) scale(87.0647 87.0643)">
<stop stop-color="white"/>
<stop offset="0.103027" stop-color="white"/>
<stop offset="0.762328" stop-color="white"/>
<stop offset="1" stop-color="#A5A3A4"/>
</radialGradient>
<radialGradient id="paint6_radial_213_2" cx="0" cy="0" r="1" gradientUnits="userSpaceOnUse" gradientTransform="translate(55.782 56.0042) scale(87.0665 87.0665)">
<stop stop-color="white"/>
<stop offset="0.103027" stop-color="white"/>
<stop offset="0.762328" stop-color="white"/>
<stop offset="1" stop-color="#A5A3A4"/>
</radialGradient>
<radialGradient id="paint7_radial_213_2" cx="0" cy="0" r="1" gradientUnits="userSpaceOnUse" gradientTransform="translate(55.7807 55.9977) scale(87.0687 87.0689)">
<stop stop-color="white"/>
<stop offset="0.103027" stop-color="white"/>
<stop offset="0.762328" stop-color="white"/>
<stop offset="1" stop-color="#A5A3A4"/>
</radialGradient>
<clipPath id="clip0_213_2">
<rect width="112" height="112" fill="white"/>
</clipPath>
</defs>
</svg>
