<svg width="129" height="178" viewBox="0 0 129 178" fill="none" xmlns="http://www.w3.org/2000/svg">
<path d="M64.3191 121.544L38.2091 88.996L64.3191 56.448L90.4301 88.996L64.3191 121.544ZM39.6451 88.996L64.3201 119.755L88.9951 88.996L64.3201 58.237L39.6451 88.996Z" fill="white"/>
<path d="M64.32 167.296L55.702 155.41L56.608 154.752L64.319 165.389L72.031 154.752L72.938 155.41L64.32 167.296Z" fill="white"/>
<path d="M64.32 177.564L55.217 165.01L56.123 164.351L64.319 175.657L72.517 164.351L73.423 165.01L64.32 177.564Z" fill="white"/>
<path d="M107.22 107.912L106.313 107.254L119.593 88.935C118.549 87.621 115.577 83.52 106.312 70.739L107.219 70.082C107.219 70.082 120.576 88.509 120.692 88.665L120.932 88.994L120.694 89.326L107.22 107.912Z" fill="white"/>
<path d="M124.116 89.3658L123.21 88.7076L79.2591 149.216L80.1653 149.874L124.116 89.3658Z" fill="white"/>
<path d="M104.898 115.824L100.827 110.21L116.253 88.932C115.139 87.526 111.826 82.957 101.065 68.112L100.827 67.783L104.208 63.121C103.27 61.829 102.288 60.474 101.257 59.052L79.3101 28.777L80.2161 28.12C80.6541 28.724 123.941 88.436 124.11 88.667L124.35 88.996L104.898 115.824ZM102.211 110.21L104.899 113.917L122.964 88.997L104.898 64.075L102.21 67.782C104.146 70.453 117.237 88.512 117.349 88.665L117.59 88.994L117.352 89.325L102.211 110.21Z" fill="white"/>
<path d="M97.313 132.054L96.407 131.395L127.191 88.932C126.073 87.52 122.742 82.925 111.893 67.961L96.406 46.597L97.313 45.94C97.622 46.366 128.137 88.461 128.287 88.666L128.527 88.995L128.289 89.326L97.313 132.054Z" fill="white"/>
<path d="M56.6091 23.24L55.7031 22.583L64.3201 10.695L72.9371 22.583L72.0301 23.24L64.3201 12.604L56.6091 23.24Z" fill="white"/>
<path d="M72.516 13.641L64.32 2.33501L56.124 13.641L55.218 12.983L64.32 0.427002L73.423 12.983L72.516 13.641Z" fill="white"/>
<path d="M21.42 107.911L7.70703 88.994L7.94904 88.664C8.06404 88.508 21.421 70.081 21.421 70.081L22.328 70.738C13.062 83.519 10.091 87.62 9.04803 88.934L22.326 107.254L21.42 107.911Z" fill="white"/>
<path d="M49.3288 149.19L5.4375 88.6437L4.53157 89.3005L48.4229 149.846L49.3288 149.19Z" fill="white"/>
<path d="M23.741 115.824L4.29102 88.996L4.53104 88.667C4.54604 88.646 5.03502 87.971 5.90002 86.777L22.189 64.307C34.387 47.481 48.424 28.118 48.424 28.118L49.331 28.775L27.383 59.05C26.353 60.472 25.37 61.827 24.433 63.12L27.813 67.781L27.575 68.11C16.812 82.956 13.501 87.524 12.387 88.93L27.813 110.208L23.741 115.824ZM5.67502 88.997L23.741 113.917L26.429 110.21L11.049 88.994L11.29 88.665C11.401 88.513 24.493 70.453 26.429 67.782L23.741 64.075L5.67502 88.997Z" fill="white"/>
<path d="M31.326 132.054L0.112061 88.996L0.352051 88.666C0.473051 88.5 31.3271 45.939 31.3271 45.939L32.2331 46.596L16.7461 67.96C5.89706 82.924 2.56707 87.519 1.44907 88.93L32.2321 131.394L31.326 132.054Z" fill="white"/>
</svg>
