<svg width="112" height="112" viewBox="0 0 112 112" fill="none" xmlns="http://www.w3.org/2000/svg">
<g id="Pink" clip-path="url(#clip0_216_2)">
<g id="#CD2A2F">
<circle id="white background" cx="56" cy="56" r="56" fill="white"/>
<path id="color" d="M112 56C112 86.9279 86.9279 112 56 112C25.0721 112 0 86.9279 0 56C0 25.0721 25.0721 0 56 0C86.9279 0 112 25.0721 112 56ZM25.228 56C25.228 72.9949 39.0051 86.772 56 86.772C72.9949 86.772 86.772 72.9949 86.772 56C86.772 39.0051 72.9949 25.228 56 25.228C39.0051 25.228 25.228 39.0051 25.228 56Z" fill="#F34987"/>
<circle id="white opacity" opacity="0.75" cx="56" cy="56" r="38" fill="white"/>
<circle id="dots" cx="55.5" cy="55.5" r="34.5" stroke="white" stroke-dasharray="3 3"/>
<g id="white corners">
<path id="path366" d="M8.16663 26.8692L18.1026 33.7172C21.896 27.2786 27.276 21.8959 33.716 18.0999L26.868 8.16653C19.248 12.8199 12.8186 19.2465 8.16663 26.8692" fill="url(#paint0_radial_216_2)"/>
<path id="path270" d="M0 55.9999C0 60.5585 0.559994 64.9838 1.58533 69.2265L13.428 67.0452C12.5187 63.5159 12.032 59.8172 12.032 55.9999C12.032 52.1879 12.5187 48.4865 13.428 44.9585L1.58533 42.7759C0.559994 47.0172 0 51.4425 0 55.9999" fill="url(#paint1_radial_216_2)"/>
<path id="path198" d="M8.16528 85.1279C12.8186 92.7545 19.248 99.1812 26.868 103.835L33.7146 93.9012C27.276 90.1079 21.896 84.7239 18.1013 78.2879L8.16528 85.1279Z" fill="url(#paint2_radial_216_2)"/>
<path id="path318" d="M55.9985 99.9705C52.1892 99.9705 48.4866 99.4812 44.9572 98.5678L42.7759 110.415C47.0172 111.443 51.4425 111.997 55.9985 111.997C60.5559 111.997 64.9825 111.443 69.2239 110.415L67.0439 98.5678C63.5159 99.4812 59.8092 99.9705 55.9985 99.9705Z" fill="url(#paint3_radial_216_2)"/>
<path id="path246" d="M78.2853 93.9012L85.1279 103.835C92.7559 99.1812 99.1799 92.7545 103.831 85.1279L93.8999 78.2852C90.1039 84.7238 84.7213 90.1079 78.2853 93.9012" fill="url(#paint4_radial_216_2)"/>
<path id="path222" d="M98.5679 44.9585C99.4772 48.4865 99.9666 52.1879 99.9666 55.9999C99.9666 59.8172 99.4772 63.5159 98.5679 67.0452L110.416 69.2265C111.441 64.9838 111.997 60.5585 111.997 55.9999C111.997 51.4425 111.441 47.0172 110.416 42.7759L98.5679 44.9585Z" fill="url(#paint5_radial_216_2)"/>
<path id="path342" d="M78.2839 18.0999C84.7213 21.8959 90.104 27.2786 93.8973 33.7172L103.831 26.8705C99.18 19.2465 92.7559 12.8212 85.1279 8.16653L78.2839 18.0999Z" fill="url(#paint6_radial_216_2)"/>
<path id="path294" d="M42.7759 1.58649L44.9572 13.4305C48.4866 12.5198 52.1892 12.0318 55.9985 12.0318C59.8092 12.0318 63.5159 12.5198 67.0439 13.4305L69.2239 1.58649C64.9825 0.558488 60.5559 0.00111978 55.9985 0.00111978C51.4425 0.00111978 47.0172 0.558488 42.7759 1.58649" fill="url(#paint7_radial_216_2)"/>
</g>
</g>
<path id="2.5" d="M52.082 61.3633V64H40.4102V61.75L45.9297 55.832C46.4844 55.2148 46.9219 54.6719 47.2422 54.2031C47.5625 53.7266 47.793 53.3008 47.9336 52.9258C48.082 52.543 48.1562 52.1797 48.1562 51.8359C48.1562 51.3203 48.0703 50.8789 47.8984 50.5117C47.7266 50.1367 47.4727 49.8477 47.1367 49.6445C46.8086 49.4414 46.4023 49.3398 45.918 49.3398C45.4023 49.3398 44.957 49.4648 44.582 49.7148C44.2148 49.9648 43.9336 50.3125 43.7383 50.7578C43.5508 51.2031 43.457 51.707 43.457 52.2695H40.0703C40.0703 51.2539 40.3125 50.3242 40.7969 49.4805C41.2812 48.6289 41.9648 47.9531 42.8477 47.4531C43.7305 46.9453 44.7773 46.6914 45.9883 46.6914C47.1836 46.6914 48.1914 46.8867 49.0117 47.2773C49.8398 47.6602 50.4648 48.2148 50.8867 48.9414C51.3164 49.6602 51.5312 50.5195 51.5312 51.5195C51.5312 52.082 51.4414 52.6328 51.2617 53.1719C51.082 53.7031 50.8242 54.2344 50.4883 54.7656C50.1602 55.2891 49.7617 55.8203 49.293 56.3594C48.8242 56.8984 48.3047 57.457 47.7344 58.0352L44.7695 61.3633H52.082ZM54.4961 62.3711C54.4961 61.8711 54.668 61.4531 55.0117 61.1172C55.3633 60.7812 55.8281 60.6133 56.4062 60.6133C56.9844 60.6133 57.4453 60.7812 57.7891 61.1172C58.1406 61.4531 58.3164 61.8711 58.3164 62.3711C58.3164 62.8711 58.1406 63.2891 57.7891 63.625C57.4453 63.9609 56.9844 64.1289 56.4062 64.1289C55.8281 64.1289 55.3633 63.9609 55.0117 63.625C54.668 63.2891 54.4961 62.8711 54.4961 62.3711ZM64.3281 56.2305L61.6328 55.5859L62.6055 46.9375H72.1914V49.668H65.3828L64.9609 53.4531C65.1875 53.3203 65.5312 53.1797 65.9922 53.0312C66.4531 52.875 66.9688 52.7969 67.5391 52.7969C68.3672 52.7969 69.1016 52.9258 69.7422 53.1836C70.3828 53.4414 70.9258 53.8164 71.3711 54.3086C71.8242 54.8008 72.168 55.4023 72.4023 56.1133C72.6367 56.8242 72.7539 57.6289 72.7539 58.5273C72.7539 59.2852 72.6367 60.0078 72.4023 60.6953C72.168 61.375 71.8125 61.9844 71.3359 62.5234C70.8594 63.0547 70.2617 63.4727 69.543 63.7773C68.8242 64.082 67.9727 64.2344 66.9883 64.2344C66.2539 64.2344 65.543 64.125 64.8555 63.9062C64.1758 63.6875 63.5625 63.3633 63.0156 62.9336C62.4766 62.5039 62.043 61.9844 61.7148 61.375C61.3945 60.7578 61.2266 60.0547 61.2109 59.2656H64.5625C64.6094 59.75 64.7344 60.168 64.9375 60.5195C65.1484 60.8633 65.4258 61.1289 65.7695 61.3164C66.1133 61.5039 66.5156 61.5977 66.9766 61.5977C67.4062 61.5977 67.7734 61.5156 68.0781 61.3516C68.3828 61.1875 68.6289 60.9609 68.8164 60.6719C69.0039 60.375 69.1406 60.0312 69.2266 59.6406C69.3203 59.2422 69.3672 58.8125 69.3672 58.3516C69.3672 57.8906 69.3125 57.4727 69.2031 57.0977C69.0938 56.7227 68.9258 56.3984 68.6992 56.125C68.4727 55.8516 68.1836 55.6406 67.832 55.4922C67.4883 55.3438 67.0859 55.2695 66.625 55.2695C66 55.2695 65.5156 55.3672 65.1719 55.5625C64.8359 55.7578 64.5547 55.9805 64.3281 56.2305Z" fill="black"/>
</g>
<defs>
<radialGradient id="paint0_radial_216_2" cx="0" cy="0" r="1" gradientUnits="userSpaceOnUse" gradientTransform="translate(55.7834 56.0036) scale(87.0781 87.0781)">
<stop stop-color="white"/>
<stop offset="0.103027" stop-color="white"/>
<stop offset="0.762328" stop-color="white"/>
<stop offset="1" stop-color="#A5A3A4"/>
</radialGradient>
<radialGradient id="paint1_radial_216_2" cx="0" cy="0" r="1" gradientUnits="userSpaceOnUse" gradientTransform="translate(55.7757 56.0009) scale(87.0649 87.0645)">
<stop stop-color="white"/>
<stop offset="0.103027" stop-color="white"/>
<stop offset="0.762328" stop-color="white"/>
<stop offset="1" stop-color="#A5A3A4"/>
</radialGradient>
<radialGradient id="paint2_radial_216_2" cx="0" cy="0" r="1" gradientUnits="userSpaceOnUse" gradientTransform="translate(55.7821 56.0022) scale(87.069 87.0689)">
<stop stop-color="white"/>
<stop offset="0.103027" stop-color="white"/>
<stop offset="0.762328" stop-color="white"/>
<stop offset="1" stop-color="#A5A3A4"/>
</radialGradient>
<radialGradient id="paint3_radial_216_2" cx="0" cy="0" r="1" gradientUnits="userSpaceOnUse" gradientTransform="translate(55.7807 55.9975) scale(87.073 87.0732)">
<stop stop-color="white"/>
<stop offset="0.103027" stop-color="white"/>
<stop offset="0.762328" stop-color="white"/>
<stop offset="1" stop-color="#A5A3A4"/>
</radialGradient>
<radialGradient id="paint4_radial_216_2" cx="0" cy="0" r="1" gradientUnits="userSpaceOnUse" gradientTransform="translate(55.782 56.0002) scale(87.0674 87.0675)">
<stop stop-color="white"/>
<stop offset="0.103027" stop-color="white"/>
<stop offset="0.762328" stop-color="white"/>
<stop offset="1" stop-color="#A5A3A4"/>
</radialGradient>
<radialGradient id="paint5_radial_216_2" cx="0" cy="0" r="1" gradientUnits="userSpaceOnUse" gradientTransform="translate(55.7845 56.0009) scale(87.0647 87.0643)">
<stop stop-color="white"/>
<stop offset="0.103027" stop-color="white"/>
<stop offset="0.762328" stop-color="white"/>
<stop offset="1" stop-color="#A5A3A4"/>
</radialGradient>
<radialGradient id="paint6_radial_216_2" cx="0" cy="0" r="1" gradientUnits="userSpaceOnUse" gradientTransform="translate(55.782 56.0042) scale(87.0665 87.0665)">
<stop stop-color="white"/>
<stop offset="0.103027" stop-color="white"/>
<stop offset="0.762328" stop-color="white"/>
<stop offset="1" stop-color="#A5A3A4"/>
</radialGradient>
<radialGradient id="paint7_radial_216_2" cx="0" cy="0" r="1" gradientUnits="userSpaceOnUse" gradientTransform="translate(55.7807 55.9977) scale(87.0687 87.0689)">
<stop stop-color="white"/>
<stop offset="0.103027" stop-color="white"/>
<stop offset="0.762328" stop-color="white"/>
<stop offset="1" stop-color="#A5A3A4"/>
</radialGradient>
<clipPath id="clip0_216_2">
<rect width="112" height="112" fill="white"/>
</clipPath>
</defs>
</svg>
