<svg width="112" height="112" viewBox="0 0 112 112" fill="none" xmlns="http://www.w3.org/2000/svg">
<g id="Red" clip-path="url(#clip0_4_303)">
<g id="#CD2A2F">
<circle id="white background" cx="56" cy="56" r="56" fill="white"/>
<path id="color" d="M112 56C112 86.9279 86.9279 112 56 112C25.0721 112 0 86.9279 0 56C0 25.0721 25.0721 0 56 0C86.9279 0 112 25.0721 112 56ZM25.228 56C25.228 72.9949 39.0051 86.772 56 86.772C72.9949 86.772 86.772 72.9949 86.772 56C86.772 39.0051 72.9949 25.228 56 25.228C39.0051 25.228 25.228 39.0051 25.228 56Z" fill="#CD2A2F"/>
<circle id="white opacity" opacity="0.75" cx="56" cy="56" r="38" fill="white"/>
<circle id="dots" cx="55.5" cy="55.5" r="34.5" stroke="white" stroke-dasharray="3 3"/>
<g id="white corners">
<path id="path366" d="M8.16663 26.8692L18.1026 33.7172C21.896 27.2786 27.276 21.8959 33.716 18.0999L26.868 8.16652C19.248 12.8199 12.8186 19.2465 8.16663 26.8692Z" fill="url(#paint0_radial_4_303)"/>
<path id="path270" d="M0 55.9999C0 60.5585 0.559994 64.9838 1.58533 69.2265L13.428 67.0452C12.5187 63.5159 12.032 59.8172 12.032 55.9999C12.032 52.1879 12.5187 48.4865 13.428 44.9585L1.58533 42.7759C0.559994 47.0172 0 51.4425 0 55.9999Z" fill="url(#paint1_radial_4_303)"/>
<path id="path198" d="M8.16528 85.1279C12.8186 92.7545 19.248 99.1812 26.868 103.835L33.7146 93.9012C27.276 90.1079 21.896 84.7239 18.1013 78.2879L8.16528 85.1279Z" fill="url(#paint2_radial_4_303)"/>
<path id="path318" d="M55.9985 99.9705C52.1892 99.9705 48.4866 99.4812 44.9572 98.5678L42.7759 110.415C47.0172 111.443 51.4425 111.997 55.9985 111.997C60.5559 111.997 64.9825 111.443 69.2239 110.415L67.0439 98.5678C63.5159 99.4812 59.8092 99.9705 55.9985 99.9705Z" fill="url(#paint3_radial_4_303)"/>
<path id="path246" d="M78.2853 93.9012L85.1279 103.835C92.7559 99.1812 99.1799 92.7545 103.831 85.1279L93.8999 78.2852C90.1039 84.7238 84.7213 90.1079 78.2853 93.9012Z" fill="url(#paint4_radial_4_303)"/>
<path id="path222" d="M98.5679 44.9585C99.4772 48.4865 99.9666 52.1879 99.9666 55.9999C99.9666 59.8172 99.4772 63.5159 98.5679 67.0452L110.416 69.2265C111.441 64.9838 111.997 60.5585 111.997 55.9999C111.997 51.4425 111.441 47.0172 110.416 42.7759L98.5679 44.9585Z" fill="url(#paint5_radial_4_303)"/>
<path id="path342" d="M78.2839 18.0999C84.7213 21.8959 90.104 27.2786 93.8973 33.7172L103.831 26.8705C99.18 19.2465 92.7559 12.8212 85.1279 8.16652L78.2839 18.0999Z" fill="url(#paint6_radial_4_303)"/>
<path id="path294" d="M42.7759 1.58649L44.9572 13.4305C48.4866 12.5198 52.1892 12.0318 55.9985 12.0318C59.8092 12.0318 63.5159 12.5198 67.0439 13.4305L69.2239 1.58649C64.9825 0.558488 60.5559 0.00111961 55.9985 0.00111961C51.4425 0.00111961 47.0172 0.558488 42.7759 1.58649Z" fill="url(#paint7_radial_4_303)"/>
</g>
</g>
<path id="5" d="M53.457 56.2305L50.7617 55.5859L51.7344 46.9375H61.3203V49.668H54.5117L54.0898 53.4531C54.3164 53.3203 54.6602 53.1797 55.1211 53.0312C55.582 52.875 56.0977 52.7969 56.668 52.7969C57.4961 52.7969 58.2305 52.9258 58.8711 53.1836C59.5117 53.4414 60.0547 53.8164 60.5 54.3086C60.9531 54.8008 61.2969 55.4023 61.5312 56.1133C61.7656 56.8242 61.8828 57.6289 61.8828 58.5273C61.8828 59.2852 61.7656 60.0078 61.5312 60.6953C61.2969 61.375 60.9414 61.9844 60.4648 62.5234C59.9883 63.0547 59.3906 63.4727 58.6719 63.7773C57.9531 64.082 57.1016 64.2344 56.1172 64.2344C55.3828 64.2344 54.6719 64.125 53.9844 63.9062C53.3047 63.6875 52.6914 63.3633 52.1445 62.9336C51.6055 62.5039 51.1719 61.9844 50.8438 61.375C50.5234 60.7578 50.3555 60.0547 50.3398 59.2656H53.6914C53.7383 59.75 53.8633 60.168 54.0664 60.5195C54.2773 60.8633 54.5547 61.1289 54.8984 61.3164C55.2422 61.5039 55.6445 61.5977 56.1055 61.5977C56.5352 61.5977 56.9023 61.5156 57.207 61.3516C57.5117 61.1875 57.7578 60.9609 57.9453 60.6719C58.1328 60.375 58.2695 60.0312 58.3555 59.6406C58.4492 59.2422 58.4961 58.8125 58.4961 58.3516C58.4961 57.8906 58.4414 57.4727 58.332 57.0977C58.2227 56.7227 58.0547 56.3984 57.8281 56.125C57.6016 55.8516 57.3125 55.6406 56.9609 55.4922C56.6172 55.3438 56.2148 55.2695 55.7539 55.2695C55.1289 55.2695 54.6445 55.3672 54.3008 55.5625C53.9648 55.7578 53.6836 55.9805 53.457 56.2305Z" fill="black"/>
</g>
<defs>
<radialGradient id="paint0_radial_4_303" cx="0" cy="0" r="1" gradientUnits="userSpaceOnUse" gradientTransform="translate(55.7834 56.0036) scale(87.0781 87.0781)">
<stop stop-color="white"/>
<stop offset="0.103027" stop-color="white"/>
<stop offset="0.762328" stop-color="white"/>
<stop offset="1" stop-color="#A5A3A4"/>
</radialGradient>
<radialGradient id="paint1_radial_4_303" cx="0" cy="0" r="1" gradientUnits="userSpaceOnUse" gradientTransform="translate(55.7757 56.0009) scale(87.0649 87.0645)">
<stop stop-color="white"/>
<stop offset="0.103027" stop-color="white"/>
<stop offset="0.762328" stop-color="white"/>
<stop offset="1" stop-color="#A5A3A4"/>
</radialGradient>
<radialGradient id="paint2_radial_4_303" cx="0" cy="0" r="1" gradientUnits="userSpaceOnUse" gradientTransform="translate(55.7821 56.0022) scale(87.069 87.0689)">
<stop stop-color="white"/>
<stop offset="0.103027" stop-color="white"/>
<stop offset="0.762328" stop-color="white"/>
<stop offset="1" stop-color="#A5A3A4"/>
</radialGradient>
<radialGradient id="paint3_radial_4_303" cx="0" cy="0" r="1" gradientUnits="userSpaceOnUse" gradientTransform="translate(55.7807 55.9975) scale(87.073 87.0732)">
<stop stop-color="white"/>
<stop offset="0.103027" stop-color="white"/>
<stop offset="0.762328" stop-color="white"/>
<stop offset="1" stop-color="#A5A3A4"/>
</radialGradient>
<radialGradient id="paint4_radial_4_303" cx="0" cy="0" r="1" gradientUnits="userSpaceOnUse" gradientTransform="translate(55.782 56.0002) scale(87.0674 87.0675)">
<stop stop-color="white"/>
<stop offset="0.103027" stop-color="white"/>
<stop offset="0.762328" stop-color="white"/>
<stop offset="1" stop-color="#A5A3A4"/>
</radialGradient>
<radialGradient id="paint5_radial_4_303" cx="0" cy="0" r="1" gradientUnits="userSpaceOnUse" gradientTransform="translate(55.7845 56.0009) scale(87.0647 87.0643)">
<stop stop-color="white"/>
<stop offset="0.103027" stop-color="white"/>
<stop offset="0.762328" stop-color="white"/>
<stop offset="1" stop-color="#A5A3A4"/>
</radialGradient>
<radialGradient id="paint6_radial_4_303" cx="0" cy="0" r="1" gradientUnits="userSpaceOnUse" gradientTransform="translate(55.782 56.0042) scale(87.0665 87.0665)">
<stop stop-color="white"/>
<stop offset="0.103027" stop-color="white"/>
<stop offset="0.762328" stop-color="white"/>
<stop offset="1" stop-color="#A5A3A4"/>
</radialGradient>
<radialGradient id="paint7_radial_4_303" cx="0" cy="0" r="1" gradientUnits="userSpaceOnUse" gradientTransform="translate(55.7807 55.9977) scale(87.0687 87.0689)">
<stop stop-color="white"/>
<stop offset="0.103027" stop-color="white"/>
<stop offset="0.762328" stop-color="white"/>
<stop offset="1" stop-color="#A5A3A4"/>
</radialGradient>
<clipPath id="clip0_4_303">
<rect width="112" height="112" fill="white"/>
</clipPath>
</defs>
</svg>
