<svg width="183" height="265" viewBox="0 0 183 265" fill="none" xmlns="http://www.w3.org/2000/svg">
<path d="M67.4451 264.057H15.6431L16.7091 263.083C16.7251 263.068 17.4671 262.38 18.3281 261.176H10.3861V264.057H0.0471191V253.719H2.92813V245.777C1.72413 246.637 1.03512 247.38 1.02112 247.395L0.0471191 248.461V196.659L1.16611 196.621C3.33311 228.547 14.6891 243.124 17.6711 246.433C20.9791 249.413 35.5551 260.771 67.4831 262.938L67.4451 264.057ZM18.3851 262.937H56.8301C34.4121 259.666 22.5051 251.819 18.1091 248.27L17.7751 248.104C18.5231 251.63 17.7361 255.935 16.1901 257.45C15.4791 258.145 14.6271 258.289 13.7921 257.846C12.8541 257.353 12.2801 256.664 12.0861 255.798C11.7111 254.135 12.9381 252.475 12.9901 252.405L13.8861 253.075C13.8761 253.089 12.9151 254.399 13.1781 255.555C13.3001 256.092 13.6711 256.516 14.3131 256.854C14.5811 256.995 14.9471 257.099 15.4061 256.648C16.8051 255.278 17.4251 250.81 16.4961 247.609C13.2911 246.677 8.82512 247.298 7.45612 248.698C7.00512 249.158 7.10912 249.524 7.24911 249.792C7.58711 250.433 8.01313 250.804 8.54913 250.927C9.70413 251.19 11.0151 250.229 11.0281 250.219L11.6991 251.115C11.6301 251.167 9.97012 252.402 8.30612 252.018C7.44012 251.824 6.75112 251.249 6.25812 250.312C5.81812 249.477 5.95911 248.624 6.65411 247.914C8.16811 246.368 12.4711 245.58 16.0001 246.328L15.8331 245.995C12.2851 241.599 4.43911 229.693 1.16711 207.275V245.719C1.61411 245.337 2.20613 244.874 2.92813 244.407V229.846L4.03812 229.743C5.04312 235.213 9.72613 242.255 9.77213 242.325L10.2861 243.093L9.36813 243.194C7.26113 243.425 5.44313 244.213 4.04813 245.043V253.718H8.73611L2.92813 260.52V254.837H1.16711V262.936H9.26611V261.175H3.58313L10.3861 255.368V260.055H19.0601C19.8911 258.659 20.6771 256.842 20.9091 254.735L21.0111 253.818L21.7781 254.331C21.8481 254.379 28.8931 259.061 34.3591 260.064L34.2571 261.175H19.6961C19.2291 261.896 18.7671 262.489 18.3851 262.937ZM20.3601 260.056H30.3391C26.7711 258.702 23.3601 256.662 21.8951 255.74C21.5991 257.396 21.0121 258.85 20.3601 260.056ZM6.62112 260.056H9.26712V257.797L6.62112 260.056ZM4.04913 254.838V257.485L6.30814 254.838H4.04913ZM4.04913 233.764V243.744C5.25513 243.093 6.70911 242.506 8.36511 242.21C7.44211 240.744 5.40313 237.333 4.04913 233.764Z" fill="white"/>
<path d="M182.594 264.057H172.255V261.176H164.31C165.171 262.381 165.915 263.069 165.931 263.082L167.003 264.057H115.195L115.158 262.938C147.085 260.771 161.662 249.414 164.97 246.433C167.951 243.124 179.307 228.547 181.475 196.621L182.594 196.659V248.461L181.619 247.395C181.604 247.379 180.917 246.637 179.713 245.777V253.719H182.594V264.057ZM173.374 262.937H181.474V254.838H179.713V260.521L173.905 253.719H178.593V245.044C177.197 244.214 175.379 243.427 173.272 243.195L172.355 243.094L172.868 242.326C172.916 242.256 177.599 235.211 178.603 229.744L179.713 229.847V244.408C180.434 244.875 181.026 245.338 181.474 245.72V207.276C178.202 229.694 170.356 241.6 166.807 245.996L166.641 246.329C170.167 245.583 174.472 246.369 175.986 247.915C176.682 248.626 176.824 249.478 176.383 250.313C175.89 251.251 175.2 251.825 174.334 252.019C172.672 252.402 171.012 251.167 170.942 251.116L171.613 250.22C171.626 250.23 172.935 251.191 174.092 250.928C174.629 250.805 175.055 250.434 175.392 249.793C175.533 249.525 175.636 249.159 175.186 248.699C173.817 247.3 169.35 246.679 166.146 247.61C165.217 250.811 165.836 255.279 167.235 256.649C167.695 257.1 168.061 256.996 168.329 256.855C168.971 256.517 169.341 256.093 169.464 255.556C169.727 254.4 168.766 253.089 168.755 253.076L169.652 252.406C169.705 252.475 170.931 254.135 170.556 255.799C170.362 256.665 169.787 257.354 168.85 257.847C168.013 258.289 167.162 258.146 166.452 257.451C164.906 255.936 164.119 251.632 164.866 248.105L164.533 248.271C160.137 251.82 148.23 259.667 125.812 262.938H164.257C163.874 262.491 163.412 261.898 162.945 261.177H148.383L148.282 260.066C153.751 259.062 160.792 254.38 160.862 254.334L161.63 253.82L161.732 254.737C161.963 256.848 162.748 258.664 163.577 260.057H172.255V255.37L179.058 261.177H173.374V262.937ZM173.374 260.056H176.02L173.374 257.797V260.056ZM152.301 260.056H162.28C161.629 258.85 161.043 257.396 160.746 255.74C159.281 256.662 155.87 258.701 152.301 260.056ZM176.334 254.838L178.593 257.485V254.838H176.334ZM174.276 242.21C175.931 242.506 177.386 243.093 178.592 243.744V233.764C177.238 237.333 175.198 240.744 174.276 242.21Z" fill="white"/>
<path d="M181.474 68.315C179.306 36.387 167.95 21.811 164.969 18.503C161.66 15.522 147.083 4.165 115.157 1.998L115.195 0.878998H166.998L165.931 1.853C165.915 1.868 165.173 2.55599 164.312 3.75999H172.254V0.878998H182.593V11.218H179.712V19.16C180.916 18.299 181.605 17.557 181.619 17.541L182.593 16.475V68.278L181.474 68.315ZM166.807 18.941C170.355 23.337 178.201 35.245 181.473 57.663V19.217C181.026 19.599 180.433 20.062 179.712 20.529V35.091L178.601 35.192C177.597 29.722 172.914 22.682 172.868 22.611L172.354 21.844L173.272 21.742C175.378 21.511 177.196 20.724 178.592 19.894V11.219H173.904L179.712 4.416V10.099H181.473V2H173.374V3.761H179.057L172.254 9.569V4.881H163.58C162.749 6.277 161.963 8.094 161.731 10.202L161.63 11.119L160.862 10.605C160.792 10.558 153.747 5.875 148.281 4.871L148.383 3.761H162.944C163.411 3.039 163.874 2.448 164.256 2H125.812C148.229 5.272 160.136 13.118 164.532 16.666L164.866 16.833C164.118 13.307 164.905 9.001 166.451 7.487C167.162 6.791 168.014 6.65 168.849 7.091C169.787 7.584 170.361 8.274 170.555 9.14C170.93 10.802 169.703 12.462 169.651 12.532L168.755 11.861C168.765 11.847 169.726 10.538 169.463 9.382C169.341 8.845 168.97 8.419 168.328 8.082C168.063 7.942 167.696 7.83599 167.235 8.28799C165.836 9.65699 165.216 14.126 166.146 17.327C169.347 18.258 173.816 17.638 175.185 16.238C175.636 15.778 175.532 15.413 175.392 15.145C175.053 14.502 174.626 14.13 174.088 14.01C172.942 13.752 171.626 14.707 171.612 14.717L170.941 13.821C171.01 13.769 172.674 12.542 174.333 12.917C175.199 13.111 175.889 13.686 176.382 14.623C176.822 15.459 176.681 16.311 175.986 17.021C174.471 18.566 170.167 19.352 166.64 18.607L166.807 18.941ZM174.275 22.728C175.198 24.193 177.236 27.604 178.591 31.173V21.194C177.386 21.844 175.931 22.431 174.275 22.728ZM176.333 10.099H178.592V7.453L176.333 10.099ZM152.3 4.881C155.869 6.235 159.28 8.27501 160.745 9.19701C161.043 7.54101 161.629 6.087 162.28 4.881H152.3ZM173.374 4.881V7.14L176.02 4.881H173.374Z" fill="white"/>
<path d="M1.16708 68.315L0.0480957 68.278V16.475L1.0231 17.541C1.0381 17.558 1.72508 18.299 2.93008 19.16V11.218H0.0480957V0.880005H10.3871V3.761H18.3331C17.4711 2.556 16.7281 1.869 16.7111 1.855L15.6391 0.880005H67.4471L67.4851 1.99899C35.5591 4.16599 20.9821 15.522 17.6721 18.504C14.6921 21.812 3.33508 36.388 1.16708 68.315ZM1.16809 19.217V57.663C4.44109 35.245 12.2861 23.338 15.8351 18.941L16.0011 18.608C12.4781 19.355 8.1701 18.568 6.6561 17.022C5.9601 16.311 5.81909 15.459 6.25909 14.624C6.75209 13.686 7.44308 13.112 8.30908 12.918C9.97008 12.543 11.6311 13.771 11.7011 13.822L11.0301 14.718C11.0161 14.708 9.71109 13.744 8.55109 14.01C8.01409 14.133 7.5891 14.503 7.2511 15.145C7.1101 15.413 7.00709 15.778 7.45709 16.238C8.82709 17.636 13.2941 18.256 16.4971 17.328C17.4271 14.126 16.8081 9.65699 15.4081 8.28799C14.9481 7.83599 14.5811 7.942 14.3141 8.082C13.6731 8.419 13.3021 8.845 13.1801 9.382C12.9171 10.537 13.8781 11.847 13.8881 11.861L12.9911 12.532C12.9391 12.463 11.7131 10.803 12.0871 9.14C12.2821 8.274 12.8571 7.584 13.7931 7.091C14.6291 6.651 15.4811 6.791 16.1911 7.487C17.7371 9.001 18.5241 13.306 17.7771 16.833L18.1111 16.666C22.5071 13.118 34.4131 5.272 56.8311 2H18.3861C18.7691 2.447 19.2311 3.039 19.6991 3.761H34.2601L34.3621 4.871C28.8921 5.876 21.8511 10.559 21.7811 10.605L21.0131 11.119L20.9121 10.202C20.6801 8.091 19.8951 6.275 19.0661 4.881H10.3881V9.569L3.58508 3.761H9.2691V2H1.1691V10.099H2.93109V4.416L8.73911 11.219H4.05109V19.894C5.44709 20.724 7.26409 21.51 9.37109 21.742L10.2891 21.844L9.77509 22.611C9.72809 22.681 5.04508 29.726 4.04108 35.192L2.93109 35.091V20.529C2.20809 20.062 1.61509 19.599 1.16809 19.217ZM4.05008 21.193V31.172C5.40408 27.603 7.44408 24.192 8.36508 22.727C6.71008 22.431 5.25608 21.844 4.05008 21.193ZM4.05008 10.099H6.30908L4.05008 7.453V10.099ZM20.3611 4.881C21.0121 6.087 21.5981 7.54101 21.8951 9.19701C23.3601 8.27401 26.7721 6.235 30.3411 4.881H20.3611ZM6.62109 4.881L9.26709 7.14V4.881H6.62109Z" fill="white"/>
<path d="M182.593 68.278H181.473V196.659H182.593V68.278Z" fill="white"/>
<path d="M1.16809 68.278H0.0480957V196.659H1.16809V68.278Z" fill="white"/>
</svg>
