<svg width="112" height="112" viewBox="0 0 112 112" fill="none" xmlns="http://www.w3.org/2000/svg">
<g id="White" clip-path="url(#clip0_214_2)">
<g id="#CD2A2F">
<circle id="white background" cx="56" cy="56" r="56" fill="white"/>
<path id="color" d="M112 56C112 86.9279 86.9279 112 56 112C25.0721 112 0 86.9279 0 56C0 25.0721 25.0721 0 56 0C86.9279 0 112 25.0721 112 56ZM25.228 56C25.228 72.9949 39.0051 86.772 56 86.772C72.9949 86.772 86.772 72.9949 86.772 56C86.772 39.0051 72.9949 25.228 56 25.228C39.0051 25.228 25.228 39.0051 25.228 56Z" fill="white"/>
<circle id="white opacity" opacity="0.75" cx="56" cy="56" r="38" fill="white"/>
<circle id="dots" cx="55.5" cy="55.5" r="34.5" stroke="#3C529E" stroke-dasharray="3 3"/>
<g id="white corners">
<path id="path366" d="M8.16663 26.8692L18.1026 33.7172C21.896 27.2786 27.276 21.8959 33.716 18.0999L26.868 8.16653C19.248 12.8199 12.8186 19.2465 8.16663 26.8692" fill="#3C529E"/>
<path id="path270" d="M0 55.9999C0 60.5585 0.559994 64.9838 1.58533 69.2265L13.428 67.0452C12.5187 63.5159 12.032 59.8172 12.032 55.9999C12.032 52.1879 12.5187 48.4865 13.428 44.9585L1.58533 42.7759C0.559994 47.0172 0 51.4425 0 55.9999" fill="#3C529E"/>
<path id="path198" d="M8.16528 85.1279C12.8186 92.7545 19.248 99.1812 26.868 103.835L33.7146 93.9012C27.276 90.1079 21.896 84.7239 18.1013 78.2879L8.16528 85.1279Z" fill="#3C529E"/>
<path id="path318" d="M55.9985 99.9705C52.1892 99.9705 48.4866 99.4812 44.9572 98.5678L42.7759 110.415C47.0172 111.443 51.4425 111.997 55.9985 111.997C60.5559 111.997 64.9825 111.443 69.2239 110.415L67.0439 98.5678C63.5159 99.4812 59.8092 99.9705 55.9985 99.9705Z" fill="#3C529E"/>
<path id="path246" d="M78.2853 93.9012L85.1279 103.835C92.7559 99.1812 99.1799 92.7545 103.831 85.1279L93.8999 78.2852C90.1039 84.7238 84.7213 90.1079 78.2853 93.9012" fill="#3C529E"/>
<path id="path222" d="M98.5679 44.9585C99.4772 48.4865 99.9666 52.1879 99.9666 55.9999C99.9666 59.8172 99.4772 63.5159 98.5679 67.0452L110.416 69.2265C111.441 64.9838 111.997 60.5585 111.997 55.9999C111.997 51.4425 111.441 47.0172 110.416 42.7759L98.5679 44.9585Z" fill="#3C529E"/>
<path id="path342" d="M78.2839 18.0999C84.7213 21.8959 90.104 27.2786 93.8973 33.7172L103.831 26.8705C99.18 19.2465 92.7559 12.8212 85.1279 8.16653L78.2839 18.0999Z" fill="#3C529E"/>
<path id="path294" d="M42.7759 1.58649L44.9572 13.4305C48.4866 12.5198 52.1892 12.0318 55.9985 12.0318C59.8092 12.0318 63.5159 12.5198 67.0439 13.4305L69.2239 1.58649C64.9825 0.558488 60.5559 0.00111978 55.9985 0.00111978C51.4425 0.00111978 47.0172 0.558488 42.7759 1.58649" fill="#3C529E"/>
</g>
</g>
<path id="1" d="M58.5078 46.9023V64H55.1328V50.793L51.0781 52.082V49.4219L58.1445 46.9023H58.5078Z" fill="black"/>
</g>
<defs>
<clipPath id="clip0_214_2">
<rect width="112" height="112" fill="white"/>
</clipPath>
</defs>
</svg>
